<?xml version="1.0" encoding="UTF-8" standalone="no"?>
<!DOCTYPE svg PUBLIC "-//W3C//DTD SVG 1.1//EN" "http://www.w3.org/Graphics/SVG/1.1/DTD/svg11.dtd">
<svg width="100%" height="100%" viewBox="0 0 83 88" version="1.1" xmlns="http://www.w3.org/2000/svg" xmlns:xlink="http://www.w3.org/1999/xlink" xml:space="preserve" xmlns:serif="http://www.serif.com/" style="fill-rule:evenodd;clip-rule:evenodd;stroke-linejoin:round;stroke-miterlimit:2;">
    <g transform="matrix(1,0,0,1,-7.43023,-6.44917)">
        <path d="M88.8,76.9C87.4,75.6 83.2,74.1 76.9,74.7C72.1,75.1 68.2,73.7 63.5,72.4C68,72.5 69.9,71.5 73.1,70.4C77.4,68.9 79.8,68.3 84.3,68.2C87.8,68.2 87.1,61.8 83.1,61.9C78.7,61.9 68.1,64.3 64.8,63.9C60.5,60.7 61.1,58.8 56.2,56.3C70,51.2 77.4,56.7 84,53C85.9,51.9 87.4,49.9 87.1,47.6C86.7,44.6 85.9,44.8 83.2,44.1C85.3,41.3 81,35 85.5,29.4C90,23.8 88.2,14.5 87.8,14.4C87.6,13.6 90,9.9 90.1,8.2C90.1,7.7 90.1,6.9 89.5,6.6C87.5,5.8 83.5,8.4 81.7,9.3C79.9,10.2 77.1,10.7 75.8,10.9C68.8,12.5 66.5,10.3 61.8,9.3C60.5,9 59.7,9.2 60.5,10.4C61.3,11.6 62.9,14.3 63.9,15.7C64.3,16.2 64.1,16.5 63.8,17.4C63.5,18.2 62.7,20.9 60.1,21.9C57.2,22.9 45.7,21.2 37.1,23.5C29.3,25.6 19.7,29.6 15.2,36.2C9.2,45 5.7,62.4 8.3,68.3C10.9,74.2 16.5,80 21,83.1C26,86.4 31.3,86.7 37,87.3C40.9,87.7 42.1,89.8 45.1,91.8C47.2,93.2 49.5,93.6 52,93.9C58,94.5 63.9,92.8 69.1,89.9C71.7,88.4 73.8,83.5 70,82.5C74.4,81.8 78,81.6 80.7,81.6C85.7,81.5 88.1,82 88.6,81.3C89.3,79.9 90.2,78.2 88.8,76.9ZM80.6,20.8C79.9,21.7 80.4,23.8 81.2,24.1C82.6,24.6 82.7,21.4 82.1,20.7L82,20.6C81.9,20.5 81.8,20.5 81.7,20.4C82.4,20.2 83.2,20.2 83.9,20.2C83.5,24.5 81.6,24.7 77.3,23.7C78.2,22.2 79.4,21.3 80.6,20.8ZM74.4,23.8C73.5,24.3 72.7,24.6 72,24.7C72.4,23.8 72.1,22.5 71.6,21.7C72.7,22 73.6,22.7 74.4,23.8ZM69.9,21.5C69.4,22.2 69.5,23.4 69.9,24.3C69.1,23.8 68.4,22.9 68,21.6C68.7,21.5 69.4,21.5 69.9,21.5ZM59.7,85.3C56.5,86 53.2,86.1 50.4,84.9C48,83.9 46.7,81.6 44.4,80.4C42.6,79.4 40.5,79.1 38.5,78.9C34.9,78.6 30.8,76.4 32,76.1C42.2,73.5 46.1,75.9 51.3,80.1C55.4,83.5 59.4,82.5 68.4,82.1C65.7,82.7 62.4,84.7 59.7,85.3Z" style="fill-rule:nonzero;"/>
    </g>
</svg>
